<?xml version="1.0" standalone="no"?><!DOCTYPE svg PUBLIC "-//W3C//DTD SVG 1.1//EN" "http://www.w3.org/Graphics/SVG/1.1/DTD/svg11.dtd"><svg t="1716286385574" class="icon" viewBox="0 0 1024 1024" version="1.1" xmlns="http://www.w3.org/2000/svg" p-id="55069" width="320" height="320" xmlns:xlink="http://www.w3.org/1999/xlink"><path d="M128 85.333333m42.666667 0l640 0q42.666667 0 42.666666 42.666667l0 0q0 42.666667-42.666666 42.666667l-640 0q-42.666667 0-42.666667-42.666667l0 0q0-42.666667 42.666667-42.666667Z" fill="#000000" p-id="55070"></path><path d="M682.666667 341.333333m-42.666667 0l-298.666667 0q-42.666667 0-42.666666-42.666666l0 0q0-42.666667 42.666666-42.666667l298.666667 0q42.666667 0 42.666667 42.666667l0 0q0 42.666667-42.666667 42.666666Z" fill="#000000" p-id="55071"></path><path d="M384 256m0 42.666667l0 426.666666q0 42.666667-42.666667 42.666667l0 0q-42.666667 0-42.666666-42.666667l0-426.666666q0-42.666667 42.666666-42.666667l0 0q42.666667 0 42.666667 42.666667Z" fill="#000000" p-id="55072"></path><path d="M213.333333 85.333333m0 42.666667l0 768q0 42.666667-42.666666 42.666667l0 0q-42.666667 0-42.666667-42.666667l0-768q0-42.666667 42.666667-42.666667l0 0q42.666667 0 42.666666 42.666667Z" fill="#000000" p-id="55073"></path><path d="M469.333333 938.666667m-42.666666 0l-256 0q-42.666667 0-42.666667-42.666667l0 0q0-42.666667 42.666667-42.666667l256 0q42.666667 0 42.666666 42.666667l0 0q0 42.666667-42.666666 42.666667Z" fill="#000000" p-id="55074"></path><path d="M768 426.666667m0-42.666667l0-256q0-42.666667 42.666667-42.666667l0 0q42.666667 0 42.666666 42.666667l0 256q0 42.666667-42.666666 42.666667l0 0q-42.666667 0-42.666667-42.666667Z" fill="#000000" p-id="55075"></path><path d="M682.666667 426.666667a256 256 0 1 1 0 512 256 256 0 0 1 0-512z m0 85.333333a170.666667 170.666667 0 1 0 0 341.333333 170.666667 170.666667 0 0 0 0-341.333333z" fill="#000000" p-id="55076"></path><path d="M789.674667 638.72l-62.037334-9.130667-28.501333-59.946666c-9.216-19.968-25.173333-19.968-34.389333 0l-28.501334 59.946666-61.184 9.130667c-21.76 3.413333-26.794667 19.2-11.733333 34.176l45.226667 46.634667-10.88 65.749333c-3.328 22.485333 9.216 30.805333 28.501333 20.821333l56.149333-30.805333 56.192 30.805333c19.285333 10.837333 32.682667 1.664 28.501334-19.968l-10.88-65.792 45.269333-45.781333c15.914667-16.64 10.88-32.426667-11.733333-35.797333z" fill="#000000" p-id="55077"></path></svg>