<?xml version="1.0" standalone="no"?><!DOCTYPE svg PUBLIC "-//W3C//DTD SVG 1.1//EN" "http://www.w3.org/Graphics/SVG/1.1/DTD/svg11.dtd"><svg t="1716282499722" class="icon" viewBox="0 0 1024 1024" version="1.1" xmlns="http://www.w3.org/2000/svg" p-id="22796" width="300" height="300" xmlns:xlink="http://www.w3.org/1999/xlink"><path d="M730.975758 411.178757c-147.20669 0-271.166933 120.088052-271.166933 271.168979 0 151.08195 120.088052 271.167956 271.166933 271.167956 151.080927 0 271.166933-120.088052 271.166933-271.167956C1006.017952 531.266809 882.055662 411.178757 730.975758 411.178757L730.975758 411.178757zM730.975758 907.028938c-123.963313 0-224.680179-100.718913-224.680179-224.681202 0-123.96229 100.717889-224.680179 224.680179-224.680179 123.963313 0 224.680179 100.718913 224.680179 224.680179C955.655937 806.310026 854.938048 907.028938 730.975758 907.028938L730.975758 907.028938zM231.252363 248.480234l387.381771 0 0 61.980633L231.252363 310.460868 231.252363 248.480234 231.252363 248.480234 231.252363 248.480234zM231.252363 407.30452l309.905212 0 0 61.981656L231.252363 469.286176 231.252363 407.30452 231.252363 407.30452zM231.252363 589.374228l154.950048 0 0 61.97961L231.252363 651.353838 231.252363 589.374228 231.252363 589.374228 231.252363 589.374228zM421.069523 876.040157 149.901567 876.040157 149.901567 120.642684l623.685685 0 0 216.936821c15.493879 0 50.356898 3.870144 65.853847 3.870144L839.441099 89.655949c0-15.500019-15.498996-30.993898-30.992875-30.993898L115.039571 58.662051c-15.500019 0-30.993898 15.493879-30.993898 30.993898l0 821.24825c0 15.494902 15.493879 30.987758 30.993898 30.987758l344.769254 0C444.3129 922.522818 432.689165 891.535059 421.069523 876.040157L421.069523 876.040157 421.069523 876.040157zM885.925806 631.986745c-3.869121-11.618619-11.618619-15.494902-23.243377-19.36914l-73.601298-11.618619-34.860972-65.85487c-7.749498-19.36914-38.737256-19.36914-50.363038 0l-34.860972 65.85487-73.606415 11.618619c-11.618619 0-19.36914 7.748475-23.2444 19.36914-3.868097 11.623735 0 19.370163 7.749498 27.117614l54.231135 50.362015-7.744381 77.476559c0 11.618619 3.875261 19.36914 11.619642 27.117614 7.748475 7.743358 19.36914 7.743358 30.992875 3.869121l65.853847-34.861996 65.852824 34.861996c3.873214 3.874237 7.747451 3.874237 11.622712 3.874237 7.748475 0 11.618619-3.874237 15.494902-3.874237 7.748475-7.743358 11.622712-15.494902 11.622712-27.113521l-11.622712-73.605392 54.236252-50.356898C885.925806 655.230122 885.925806 643.61048 885.925806 631.986745L885.925806 631.986745zM773.588275 686.222997c-7.749498 7.744381-7.749498 15.494902-7.749498 23.243377l3.874237 34.863019-27.117614-19.36914c-3.874237-3.875261-7.744381-3.875261-11.618619-3.875261-3.875261 0-7.748475 0-11.622712 3.875261l-30.988782 15.493879 3.875261-30.987758c0-7.748475 0-19.36914-7.749498-23.243377l-23.243377-23.2444 34.867112-3.874237c7.743358 0 15.494902-7.748475 19.36914-15.493879l15.494902-30.992875 15.494902 30.992875c3.875261 7.743358 11.622712 11.618619 19.36914 15.493879l34.863019 3.874237L773.588275 686.222997 773.588275 686.222997z" fill="#000000" p-id="22797"></path></svg>