<?xml version="1.0" standalone="no"?><!DOCTYPE svg PUBLIC "-//W3C//DTD SVG 1.1//EN" "http://www.w3.org/Graphics/SVG/1.1/DTD/svg11.dtd"><svg t="1716281350263" class="icon" viewBox="0 0 1024 1024" version="1.1" xmlns="http://www.w3.org/2000/svg" p-id="5941" width="283" height="283" xmlns:xlink="http://www.w3.org/1999/xlink"><path d="M511.954 147.095L86.983 572.067c-17.183 17.183-45.043 17.183-62.226 0s-17.183-45.043 0-62.226L511.954 22.645 999.15 509.84c17.183 17.183 17.183 45.043 0 62.226-17.184 17.183-45.043 17.183-62.226 0L511.954 147.095zM861 149H716c-24.3 0-44-19.7-44-44s19.7-44 44-44h233v233c0 24.3-19.7 44-44 44s-44-19.7-44-44V149zM457.879 927.227c0 24.3-19.7 44-44 44H160c-24.3 0-44-19.7-44-44V609c0-24.3 19.7-44 44-44s44 19.7 44 44v274.227h165.879v-149.72c0-24.3 19.699-44 44-44h193.566c24.3 0 44 19.7 44 44v149.72h167.223V616.666c0-24.3 19.699-44 44-44 24.3 0 44 19.7 44 44v310.56c0 24.301-19.7 44-44 44H607.445c-24.3 0-44-19.699-44-44V777.508H457.88v149.72z" fill="#000000" p-id="5942"></path></svg>